<svg width="24" height="24" viewBox="0 0 24 24" fill="none" xmlns="http://www.w3.org/2000/svg">
<g clip-path="url(#clip0_503_967)">
<path d="M8.30793 15.537V15.3446C8.48577 15.3232 8.85427 15.242 8.90549 15.0882C8.95671 14.9343 8.98374 14.6394 8.99085 14.5111V12.9724L9.22561 12.5022C9.38211 12.3526 9.87012 12.0534 10.5701 12.0534L10.6128 12.1175V12.9083C10.4278 12.9795 10.0409 13.1476 9.97256 13.2502C9.90427 13.3528 9.8872 13.6064 9.8872 13.7204V15.1736L9.84451 15.3232L9.80183 15.4942L9.69512 15.6011L9.43902 15.8362L9.375 15.9216L9.67378 16.114L9.8872 16.4987V18.2297L9.92988 18.4007C9.93699 18.472 9.98963 18.6315 10.1433 18.6999C10.297 18.7683 10.5203 18.8424 10.6128 18.8709V19.7471L10.2713 19.7044C10.0722 19.683 9.62683 19.5719 9.43902 19.4693C9.25122 19.3667 9.04776 18.9136 8.96951 18.6999V16.9376C8.94817 16.7771 8.82012 16.4559 8.47866 16.4559L8.30793 16.3491L8.22256 15.9858L8.15854 15.7934L8.30793 15.537Z" fill="#868686"/>
<path d="M13.4299 18.8923V19.683L13.5579 19.7471L14.5396 19.5334C14.6606 19.4479 14.9152 19.2299 14.9665 19.0419C15.0177 18.8538 15.0874 18.764 15.1159 18.7427L15.0945 17.0757C15.1301 16.9118 15.2354 16.5713 15.372 16.52C15.5085 16.4687 15.6992 16.4132 15.7774 16.3918L15.8628 16.0285L15.9695 15.9003L15.7774 15.366L15.2652 15.1523L15.0945 14.7676L15.0518 12.9083C14.9878 12.7373 14.8 12.3825 14.561 12.3313L14.4329 12.2458L13.622 12.0534L13.4512 12.0748L13.4299 12.8869L13.9848 13.122L14.1555 13.3143L14.1982 13.5494L14.2195 15.2805L14.4329 15.6866L14.625 15.8148L14.753 15.9003L14.4329 16.1781C14.3689 16.2351 14.2366 16.4004 14.2195 16.6055C14.2024 16.8107 14.1982 17.8166 14.1982 18.2939C14.1768 18.3793 14.1085 18.5674 14.0061 18.6358C13.9037 18.7042 13.5793 18.8353 13.4299 18.8923Z" fill="#868686"/>
<path fill-rule="evenodd" clip-rule="evenodd" d="M15.0518 0L9.29032 0.0670207C8.83871 0.0670207 7.9878 0.047017 7.73171 0.918967V2.77827L8.03049 3.39804L8.47866 3.63313L8.54268 3.97507L8.43598 4.50935L8.35061 4.82992C8.17988 5.15761 7.60793 5.95833 6.68598 6.53963L6.3872 6.81745C5.98882 7.12378 5.15366 8.13393 5 9.72395L5.04268 21.35C5.10671 21.6349 5.2561 22.2176 5.34146 22.2689C5.44817 22.333 5.40549 22.6963 6.15244 23.3161C6.75 23.8119 7.53963 23.9786 7.85976 24H16.4177L17.4207 23.6794L18.061 23.2093L18.4451 22.7605L18.8506 21.9697L19 21.2645V18.6358V15.7293V9.63847L18.936 9.08281L18.6585 8.09973L18.1677 7.24488L17.4421 6.47551L17.1006 6.24043L16.1616 5.42832L15.8841 5.00089L15.5 4.12467L15.5213 3.67587L16.0122 3.33393L16.3537 2.71416L16.3323 2.41496V1.15405C16.2967 0.804987 15.9396 0.0512912 15.0518 0ZM8.6067 0.876224L8.43598 1.08994L8.39329 1.21817V2.6073L8.54268 2.77827L8.71341 2.86376H15.3293L15.5 2.82102L15.6067 2.67142L15.6494 2.52182L15.6707 1.19679L15.6067 1.0472L15.5213 0.918967L15.3293 0.81211H8.84146L8.6067 0.876224ZM6.75 7.41585C6.42561 7.7065 6.08841 8.39181 5.96037 8.69813L6.08841 8.76224L6.62195 8.59127L7.3689 8.46305L9.16159 8.52716L10.4848 8.74087L13.0244 9.53161C13.5024 9.77097 14.8455 9.98753 15.4573 10.0659H16.4177C16.8445 10.1001 17.7195 9.88068 18.1037 9.74533C18.1392 9.72396 18.2189 9.61282 18.253 9.33927C18.2872 9.06572 17.94 8.2992 17.7622 7.95013L17.0793 7.11665L16.2043 6.4114L15.4787 5.68477C15.0689 5.35993 14.8242 4.21015 14.7744 3.67587L10.0152 3.71861L9.43902 3.6545L9.22561 3.76135C9.18293 4.78718 8.92683 5.19323 8.77744 5.5138C8.65793 5.77026 8.01626 6.37578 7.71037 6.64648C7.52541 6.78183 7.07439 7.1252 6.75 7.41585ZM6.1311 9.51024L5.74695 9.85218L5.72561 21.2431C5.77683 21.585 6.07419 22.1264 6.21646 22.3544C6.37012 22.7305 7.30488 23.1095 7.75305 23.252H8.73476H13.5793H16.247C16.4675 23.2306 17.0323 23.0939 17.5274 22.7177C18.0226 22.3416 18.2459 21.5922 18.2957 21.2645V10.5361L18.253 10.4292L17.6982 10.6216C16.9436 10.8577 16.2006 10.8039 15.8189 10.7763C15.6824 10.7664 15.5921 10.7599 15.564 10.7711C15.5058 10.7945 15.155 10.7414 14.8275 10.6918C14.5552 10.6506 14.299 10.6118 14.2409 10.6216C14.1384 10.6386 13.0884 10.3295 12.5762 10.1728C12.0711 10.016 10.9585 9.65984 10.5488 9.48887C10.139 9.3179 9.21138 9.23241 8.79878 9.21104H7.56098C7.06585 9.21104 6.40142 9.41051 6.1311 9.51024Z" fill="#868686"/>
<path fill-rule="evenodd" clip-rule="evenodd" d="M8.30793 15.537V15.3446C8.48577 15.3232 8.85427 15.242 8.90549 15.0882C8.95671 14.9343 8.98374 14.6394 8.99085 14.5111V12.9724L9.22561 12.5022C9.38211 12.3526 9.87012 12.0534 10.5701 12.0534L10.6128 12.1175V12.9083C10.4278 12.9795 10.0409 13.1476 9.97256 13.2502C9.90427 13.3528 9.8872 13.6064 9.8872 13.7204V15.1736L9.84451 15.3232L9.80183 15.4942L9.69512 15.6011L9.43902 15.8362L9.375 15.9216L9.67378 16.114L9.8872 16.4987V18.2297L9.92988 18.4007C9.93699 18.472 9.98963 18.6315 10.1433 18.6999C10.297 18.7683 10.5203 18.8424 10.6128 18.8709V19.7471L10.2713 19.7044C10.0722 19.683 9.62683 19.5719 9.43902 19.4693C9.25122 19.3667 9.04776 18.9136 8.96951 18.6999V16.9376C8.94817 16.7771 8.82012 16.4559 8.47866 16.4559L8.30793 16.3491L8.22256 15.9858L8.15854 15.7934L8.30793 15.537ZM13.4299 18.8923V19.683L13.5579 19.7471L14.5396 19.5334C14.6606 19.4479 14.9152 19.2299 14.9665 19.0419C15.0177 18.8538 15.0874 18.764 15.1159 18.7427L15.0945 17.0757C15.1301 16.9118 15.2354 16.5713 15.372 16.52C15.5085 16.4687 15.6992 16.4132 15.7774 16.3918L15.8628 16.0285L15.9695 15.9003L15.7774 15.366L15.2652 15.1523L15.0945 14.7676L15.0518 12.9083C14.9878 12.7373 14.8 12.3825 14.561 12.3313L14.4329 12.2458L13.622 12.0534L13.4512 12.0748L13.4299 12.8869L13.9848 13.122L14.1555 13.3143L14.1982 13.5494L14.2195 15.2805L14.4329 15.6866L14.625 15.8148L14.753 15.9003L14.4329 16.1781C14.3689 16.2351 14.2366 16.4004 14.2195 16.6055C14.2024 16.8107 14.1982 17.8166 14.1982 18.2939C14.1768 18.3793 14.1085 18.5674 14.0061 18.6358C13.9037 18.7042 13.5793 18.8353 13.4299 18.8923Z" fill="#868686"/>
<path d="M7.56098 9.21104C7.06585 9.21104 6.40142 9.41051 6.1311 9.51024L5.74695 9.85218L5.72561 21.2431C5.77683 21.585 6.07419 22.1264 6.21646 22.3544C6.37012 22.7305 7.30488 23.1095 7.75305 23.252H8.73476H13.5793H16.247C16.4675 23.2306 17.0323 23.0939 17.5274 22.7177C18.0226 22.3416 18.2459 21.5922 18.2957 21.2645V10.5361L18.253 10.4292L17.6982 10.6216C16.9436 10.8577 16.2006 10.8039 15.8189 10.7763C15.6824 10.7664 15.5921 10.7599 15.564 10.7711C15.5058 10.7945 15.155 10.7414 14.8275 10.6918C14.5552 10.6506 14.299 10.6118 14.2409 10.6216C14.1384 10.6386 13.0884 10.3295 12.5762 10.1728C12.0711 10.016 10.9585 9.65984 10.5488 9.48887C10.139 9.3179 9.21138 9.23241 8.79878 9.21104M7.56098 9.21104C8.0561 9.21104 8.59248 9.21104 8.79878 9.21104M7.56098 9.21104H8.79878M15.0518 0L9.29032 0.0670207C8.83871 0.0670207 7.9878 0.047017 7.73171 0.918967V2.77827L8.03049 3.39804L8.47866 3.63313L8.54268 3.97507L8.43598 4.50935L8.35061 4.82992C8.17988 5.15761 7.60793 5.95833 6.68598 6.53963L6.3872 6.81745C5.98882 7.12378 5.15366 8.13393 5 9.72395L5.04268 21.35C5.10671 21.6349 5.2561 22.2176 5.34146 22.2689C5.44817 22.333 5.40549 22.6963 6.15244 23.3161C6.75 23.8119 7.53963 23.9786 7.85976 24H16.4177L17.4207 23.6794L18.061 23.2093L18.4451 22.7605L18.8506 21.9697L19 21.2645V18.6358V15.7293V9.63847L18.936 9.08281L18.6585 8.09973L18.1677 7.24488L17.4421 6.47551L17.1006 6.24043L16.1616 5.42832L15.8841 5.00089L15.5 4.12467L15.5213 3.67587L16.0122 3.33393L16.3537 2.71416L16.3323 2.41496V1.15405C16.2967 0.804987 15.9396 0.0512912 15.0518 0ZM8.43598 1.08994L8.6067 0.876224L8.84146 0.81211H15.3293L15.5213 0.918967L15.6067 1.0472L15.6707 1.19679L15.6494 2.52182L15.6067 2.67142L15.5 2.82102L15.3293 2.86376H8.71341L8.54268 2.77827L8.39329 2.6073V1.21817L8.43598 1.08994ZM5.96037 8.69813C6.08841 8.39181 6.42561 7.7065 6.75 7.41585C7.07439 7.1252 7.52541 6.78183 7.71037 6.64648C8.01626 6.37578 8.65793 5.77026 8.77744 5.5138C8.92683 5.19323 9.18293 4.78718 9.22561 3.76135L9.43902 3.6545L10.0152 3.71861L14.7744 3.67587C14.8242 4.21015 15.0689 5.35993 15.4787 5.68477L16.2043 6.4114L17.0793 7.11665L17.7622 7.95013C17.94 8.2992 18.2872 9.06572 18.253 9.33927C18.2189 9.61282 18.1392 9.72396 18.1037 9.74533C17.7195 9.88068 16.8445 10.1001 16.4177 10.0659H15.4573C14.8455 9.98753 13.5024 9.77097 13.0244 9.53161L10.4848 8.74087L9.16159 8.52716L7.3689 8.46305L6.62195 8.59127L6.08841 8.76224L5.96037 8.69813ZM8.30793 15.537V15.3446C8.48577 15.3232 8.85427 15.242 8.90549 15.0882C8.95671 14.9343 8.98374 14.6394 8.99085 14.5111V12.9724L9.22561 12.5022C9.38211 12.3526 9.87012 12.0534 10.5701 12.0534L10.6128 12.1175V12.9083C10.4278 12.9795 10.0409 13.1476 9.97256 13.2502C9.90427 13.3528 9.8872 13.6064 9.8872 13.7204V15.1736L9.84451 15.3232L9.80183 15.4942L9.69512 15.6011L9.43902 15.8362L9.375 15.9216L9.67378 16.114L9.8872 16.4987V18.2297L9.92988 18.4007C9.93699 18.472 9.98963 18.6315 10.1433 18.6999C10.297 18.7683 10.5203 18.8424 10.6128 18.8709V19.7471L10.2713 19.7044C10.0722 19.683 9.62683 19.5719 9.43902 19.4693C9.25122 19.3667 9.04776 18.9136 8.96951 18.6999V16.9376C8.94817 16.7771 8.82012 16.4559 8.47866 16.4559L8.30793 16.3491L8.22256 15.9858L8.15854 15.7934L8.30793 15.537ZM13.4299 18.8923V19.683L13.5579 19.7471L14.5396 19.5334C14.6606 19.4479 14.9152 19.2299 14.9665 19.0419C15.0177 18.8538 15.0874 18.764 15.1159 18.7427L15.0945 17.0757C15.1301 16.9118 15.2354 16.5713 15.372 16.52C15.5085 16.4687 15.6992 16.4132 15.7774 16.3918L15.8628 16.0285L15.9695 15.9003L15.7774 15.366L15.2652 15.1523L15.0945 14.7676L15.0518 12.9083C14.9878 12.7373 14.8 12.3825 14.561 12.3313L14.4329 12.2458L13.622 12.0534L13.4512 12.0748L13.4299 12.8869L13.9848 13.122L14.1555 13.3143L14.1982 13.5494L14.2195 15.2805L14.4329 15.6866L14.625 15.8148L14.753 15.9003L14.4329 16.1781C14.3689 16.2351 14.2366 16.4004 14.2195 16.6055C14.2024 16.8107 14.1982 17.8166 14.1982 18.2939C14.1768 18.3793 14.1085 18.5674 14.0061 18.6358C13.9037 18.7042 13.5793 18.8353 13.4299 18.8923Z" stroke="#868686" stroke-width="0.2"/>
</g>
<defs>
<clipPath id="clip0_503_967">
<rect width="24" height="24" fill="white"/>
</clipPath>
</defs>
</svg>
